<?xml version="1.0" encoding="UTF-8"?>
<svg id="Layer_2" data-name="Layer 2" xmlns="http://www.w3.org/2000/svg" viewBox="0 0 1994.42 1201.03">
  <defs>
    <style>
      .cls-1 {
        fill: #fff;
      }
    </style>
  </defs>
  <g id="Layer_1-2" data-name="Layer 1">
    <g>
      <g>
        <path d="M1424.73,683.01l-43.24,203.28h51.56l43.25-203.28h-51.58Zm119.39,310.18c-.79-.21-1.59-.45-2.38-.7-.05,0-.11-.02-.16-.04-.79-.23-1.57-.48-2.34-.73-2.77-.88-5.48-1.83-8.11-2.83-.98-.38-1.95-.75-2.9-1.15-.91-.36-1.81-.75-2.7-1.13-.09-.04-.2-.07-.29-.13-.88-.39-1.75-.79-2.61-1.18-1.34-.63-2.65-1.25-3.94-1.92-1-.5-1.97-1-2.94-1.54-1.04-.55-2.06-1.13-3.06-1.74-.18-.09-.34-.18-.52-.3-.72-.41-1.41-.84-2.11-1.29-.43-.25-.86-.52-1.29-.81-.66-.41-1.31-.82-1.93-1.29-.25-.14-.48-.3-.73-.48-.93-.63-1.86-1.29-2.76-1.97-.97-.7-1.9-1.43-2.81-2.17-1.18-.95-2.33-1.9-3.44-2.9-.61-.52-1.2-1.06-1.77-1.59-.12-.13-.25-.23-.38-.36-.64-.61-1.29-1.22-1.88-1.84-.29-.27-.54-.52-.77-.77-.55-.55-1.09-1.11-1.59-1.68-.21-.21-.41-.43-.59-.64-.59-.64-1.16-1.29-1.72-1.95-.18-.2-.36-.41-.5-.61-.39-.45-.77-.89-1.13-1.36-.38-.47-.75-.95-1.11-1.41-1.91-2.49-3.67-5.06-5.3-7.75-.27-.41-.52-.84-.75-1.27-.32-.54-.64-1.11-.95-1.66-.21-.38-.43-.75-.61-1.15-.3-.54-.59-1.09-.86-1.65-.25-.43-.46-.89-.68-1.34-.32-.64-.63-1.31-.93-1.97-.14-.3-.29-.61-.41-.91-.41-.93-.82-1.86-1.2-2.81-.04-.05-.05-.13-.07-.18-.3-.75-.61-1.5-.88-2.27-.52-1.34-.98-2.72-1.43-4.1-.2-.57-.38-1.15-.54-1.74-.3-.95-.59-1.92-.84-2.88-.2-.72-.39-1.43-.57-2.17-.12-.46-.23-.95-.34-1.43-.18-.72-.34-1.43-.5-2.17-.18-.88-.36-1.75-.52-2.63-.39-2-.73-4.04-1.02-6.12-.16-1.13-.3-2.27-.43-3.42h-214.66l17.04-80.3h-35.4c-.2,1.02-.41,2.04-.63,3.04-.39,1.9-.79,3.78-1.2,5.62-6.51,30.41-20.19,72.84-41,127.22-6.53,1.61-19.52,2.4-39.05,2.4-46.87,0-110.65-5.58-191.35-16.8-5.19-.77-10.31-1.54-15.36-2.33-5.06-.79-10.04-1.58-14.96-2.34-5.49-.88-10.92-1.75-16.25-2.65-4.19-.7-8.32-1.4-12.4-2.09-11.6-1.99-22.76-3.99-33.5-6.03-2.11-.39-4.21-.81-6.28-1.2-1.06-.2-2.11-.39-3.15-.61-2.17-.43-4.33-.84-6.46-1.27-6.39-1.27-12.62-2.54-18.68-3.83-2.02-.43-4.01-.86-6-1.29-5.1-1.11-10.06-2.2-14.91-3.33-2.7-.63-5.39-1.23-8.02-1.86-5.51-1.31-10.85-2.63-16.03-3.95-1.72-.45-3.42-.88-5.12-1.32-3.38-.88-6.69-1.77-9.93-2.67-3.11-.86-6.17-1.74-9.16-2.59-1.63-.48-3.26-.95-4.85-1.43,68.99,57.61,151.63,107.23,247.95,148.84,87.21,38.41,171.14,64.82,251.85,79.23-5.26-19.22-7.88-36.02-7.88-50.43,0-46.39,26.22-73.59,78.71-81.61,71.49-3.17,143.03-6.34,214.56-9.52,.63-.04,1.27-.05,1.9-.09-.84-.23-1.68-.45-2.51-.7Zm-25.05-865.94h68.88c-102.33-49.59-236.14-74.41-401.43-74.41-2.95,0-5.89,.02-8.79,.04-2.38,0-4.72,.04-7.07,.05-2.92,.04-5.82,.09-8.68,.14-2,.04-3.99,.07-5.98,.13-4.1,.09-8.16,.21-12.17,.34-2.74,.09-5.46,.2-8.16,.32-3.4,.13-6.75,.29-10.08,.47-1.97,.09-3.92,.2-5.85,.32-1.97,.11-3.94,.21-5.87,.36-1.14,.05-2.27,.13-3.38,.21-9.36,.63-18.42,1.38-27.2,2.25-1.43,.14-2.86,.29-4.28,.45-5.44,.57-10.76,1.18-15.96,1.86-1.25,.16-2.51,.32-3.76,.5-2.86,.38-5.67,.77-8.46,1.2-2.43,.36-4.83,.72-7.19,1.11-1.02,.16-2.04,.32-3.04,.5-1.52,.25-3.02,.5-4.51,.77-1.5,.25-2.99,.52-4.46,.81-2.2,.39-4.4,.82-6.57,1.25-2.15,.43-4.29,.86-6.41,1.31v.02c-18.7,3.97-35.56,8.77-50.54,14.39-17.07-1.58-25.59-9.59-25.59-24,0-15.64,7.53-34.36,22.62-56.18,.32-.48,.66-.97,1-1.45-47.23,17.56-92.49,57.39-135.78,119.51-1.5,2.18-2.99,4.37-4.44,6.55-102.01-48.78-234.98-73.23-398.92-73.23-2.95,0-5.89,.02-8.79,.04-2.38,0-4.72,.04-7.07,.05-2.92,.04-5.82,.09-8.68,.14-2,.04-3.99,.07-5.98,.13-4.12,.09-8.16,.21-12.19,.34-2.74,.09-5.46,.2-8.14,.32-3.42,.14-6.82,.29-10.17,.47-1.93,.11-3.87,.2-5.78,.32-1.97,.11-3.92,.21-5.87,.36-1.13,.05-2.25,.13-3.38,.21-9.29,.63-18.31,1.36-27.04,2.24-1.48,.14-2.97,.3-4.44,.47-5.3,.55-10.51,1.16-15.62,1.83-1.36,.16-2.74,.34-4.1,.54-2.86,.38-5.67,.77-8.46,1.2-2.42,.36-4.81,.72-7.2,1.11-1.02,.16-2.04,.32-3.04,.5-1.52,.25-3.02,.5-4.51,.77-1.5,.25-2.99,.52-4.46,.81-2.22,.39-4.4,.82-6.57,1.25-2.17,.43-4.29,.86-6.41,1.31v.02c-18.7,3.97-35.56,8.77-50.54,14.39-17.07-1.58-25.59-9.59-25.59-24,0-15.64,7.53-34.36,22.62-56.18,.32-.48,.66-.97,1-1.45-47.23,17.56-92.49,57.39-135.78,119.51C23.61,188.02,0,258.9,0,332.21c0,2.15,.02,4.29,.07,6.44,.04,1.83,.09,3.65,.16,5.48,.02,.59,.05,1.16,.07,1.74,.07,1.49,.14,2.95,.25,4.42,.02,.68,.07,1.38,.13,2.06,0,.11,0,.2,.02,.29,.11,1.56,.21,3.11,.36,4.67,.02,.25,.04,.5,.07,.77,.16,1.99,.36,3.97,.57,5.96,.18,1.79,.39,3.56,.63,5.33v.02l.21,1.66c.52,3.87,1.11,7.7,1.77,11.53,.39,2.17,.81,4.35,1.23,6.53,.39,1.93,.81,3.87,1.23,5.8,.41,1.86,.84,3.7,1.29,5.55,.14,.54,.27,1.06,.39,1.59,.34,1.34,.68,2.67,1.04,4.01,.21,.81,.43,1.59,.66,2.4,.59,2.13,1.2,4.24,1.84,6.37,.41,1.38,.84,2.76,1.29,4.13,.55,1.77,1.15,3.56,1.75,5.33,.77,2.22,1.56,4.44,2.38,6.66,.68,1.84,1.4,3.67,2.11,5.51,.05,.11,.09,.21,.12,.3,.64,1.61,1.29,3.2,1.97,4.8,.18,.47,.38,.93,.57,1.38,.64,1.56,1.32,3.08,2,4.62,.23,.52,.45,1.02,.68,1.52,.73,1.61,1.47,3.22,2.24,4.81,.68,1.43,1.38,2.88,2.09,4.31,1.29,2.63,2.63,5.24,4.03,7.84,.86,1.61,1.74,3.2,2.63,4.81,.98,1.77,2,3.54,3.02,5.32,.05,.09,.11,.18,.16,.27,1.09,1.86,2.18,3.7,3.33,5.55,.02,.04,.03,.05,.05,.09,.89,1.45,1.79,2.9,2.72,4.35,.39,.63,.81,1.25,1.22,1.88,.98,1.56,2.02,3.11,3.06,4.65,.16,.27,.36,.54,.54,.81,.88,1.29,1.75,2.58,2.65,3.85,1.16,1.68,2.34,3.36,3.58,5.03,.52,.73,1.06,1.47,1.59,2.2,1.11,1.5,2.24,3.01,3.38,4.49,1.02,1.34,2.06,2.68,3.11,4.03,.11,.14,.23,.29,.34,.43,.59,.75,1.18,1.5,1.79,2.25,1.43,1.79,2.88,3.56,4.35,5.33,2.58,3.08,5.23,6.14,7.93,9.18-3.94-15.44-5.91-28.62-5.91-39.46,0-20.1,7.87-30.16,23.6-30.16,6.55,0,14.42,1.61,23.62,4.8,112.8,41.64,238.73,81.62,377.81,120.05-.63,17.2-1.38,33.79-2.24,49.75-.3,5.82-.63,11.53-.98,17.18-.29,4.51-.55,8.97-.86,13.37-.18,2.97-.39,5.91-.61,8.82-.64,9.29-1.36,18.33-2.11,27.13-.39,4.62-.81,9.18-1.22,13.67-.63,6.75-1.29,13.35-1.97,19.79-.68,6.46-1.4,12.76-2.15,18.92-.25,2.04-.5,4.06-.75,6.07-1,8.05-2.06,15.82-3.17,23.34-.48,3.15-.95,6.26-1.43,9.32-.34,2.18-.7,4.33-1.06,6.48-.04,.25-.07,.52-.13,.79-.59,3.56-1.2,7.07-1.82,10.51-1.56,8.59-3.19,16.77-4.89,24.54-6.51,30.41-20.19,72.84-41,127.22-6.53,1.61-19.52,2.4-39.05,2.4-46.85,0-110.65-5.58-191.33-16.8-85.92-12.78-152.94-26.4-201.08-40.8,.39,.32,.77,.64,1.16,.97,68.76,57.2,151.01,106.5,246.81,147.88,87.19,38.41,171.12,64.82,251.84,79.23-5.26-19.22-7.87-36.02-7.87-50.43,0-46.39,26.22-73.59,78.71-81.61,71.51-3.17,143.03-6.34,214.56-9.52,.63-.04,1.27-.05,1.9-.09-.84-.23-1.68-.45-2.51-.7-.82-.23-1.65-.47-2.45-.72-.82-.25-1.63-.48-2.43-.75-2.79-.88-5.49-1.83-8.11-2.83-.97-.38-1.93-.75-2.9-1.15-.91-.38-1.81-.75-2.7-1.13-.11-.04-.2-.09-.29-.13-.88-.39-1.75-.79-2.61-1.18-37.8-17.48-56.68-49.04-56.68-94.65,0-9.61,.64-19.99,1.97-31.21,22.28-148.84,33.45-309.69,33.45-482.53,0-126.42-1.97-197.65-5.91-213.66-2.65-6.37-3.94-12.01-3.94-16.8,0-11.17,9.16-17.59,27.56-19.2h65.61c-43.76,66.09-65.63,134.42-65.63,204.96,0,49.48,11.95,95.71,35.88,138.66,2.61,4.69,5.37,9.34,8.29,13.96,.97,1.54,1.95,3.08,2.95,4.62,.68,1.06,1.38,2.11,2.09,3.17,.68,1.02,1.36,2.04,2.08,3.06,4.19,6.12,8.64,12.15,13.37,18.13,.77,1,1.58,1.99,2.38,2.99,1.23,1.54,2.49,3.06,3.74,4.58,2.58,3.08,5.23,6.14,7.93,9.18-3.94-15.44-5.91-28.62-5.91-39.46,0-20.1,7.87-30.16,23.6-30.16,6.55,0,14.42,1.61,23.62,4.8,112.8,41.64,238.73,81.62,377.81,120.05-.63,17.2-1.38,33.79-2.24,49.75-.3,5.82-.64,11.53-.98,17.18-.18,2.81-.34,5.58-.52,8.32-.02,.39-.05,.79-.07,1.18h55.76c20.54,0,37.33,5.55,49.93,16.52l38.06,33.18,10.58-49.7h82.47c.93-11.4,1.79-22.85,2.58-34.38,.02-.21,.04-.45,.05-.66,.38-5.53,.75-11.1,1.11-16.66,.38-5.78,.73-11.6,1.07-17.41,.34-5.82,.68-11.65,.98-17.5,.29-5.24,.55-10.49,.82-15.75,.05-1.2,.11-2.42,.16-3.62,.27-5.3,.5-10.61,.73-15.93,.27-5.92,.5-11.85,.73-17.79,.23-5.94,.45-11.9,.64-17.88,.09-2.34,.16-4.71,.23-7.05,.25-7.68,.46-15.39,.66-23.14,.02-.77,.04-1.54,.05-2.33,.12-5.01,.23-10.04,.34-15.07,.09-3.81,.16-7.64,.21-11.47,.09-4.46,.16-8.91,.21-13.37,.09-6.1,.16-12.22,.21-18.34,.05-4.15,.07-8.32,.09-12.49,.04-2.76,.05-5.53,.05-8.3,.02-5.37,.04-10.76,.04-16.16,0-126.42-1.97-197.65-5.91-213.66-2.65-6.37-3.94-12.01-3.94-16.8,0-11.17,9.16-17.59,27.54-19.2ZM505.71,416.52c-1.32,34.43-1.97,58.82-1.97,73.23-2.95-.88-5.87-1.75-8.75-2.6-12.69-3.79-24.89-7.43-36.56-10.92-2.56-.77-5.08-1.52-7.57-2.25-3.78-1.13-7.48-2.24-11.11-3.33-2.74-.82-5.44-1.63-8.11-2.42-7.73-2.31-15.21-4.55-22.44-6.71-3.72-1.13-7.37-2.22-10.97-3.29-.43-.13-.84-.25-1.27-.38-2.2-.68-4.38-1.32-6.53-1.97-.45-.13-.89-.25-1.34-.39-1.81-.54-3.6-1.07-5.35-1.61-3.97-1.2-7.87-2.36-11.65-3.51-1.27-.38-2.52-.75-3.76-1.13-3.08-.91-6.1-1.83-9.06-2.72-1.97-.59-3.9-1.18-5.82-1.75-.97-.29-1.91-.57-2.86-.86-1.88-.57-3.74-1.13-5.57-1.68-.57-.16-1.13-.32-1.66-.5-1.52-.47-3.02-.91-4.51-1.36-1.43-.43-2.83-.86-4.21-1.27-2.77-.84-5.46-1.66-8.09-2.45-1.31-.39-2.61-.79-3.88-1.18-.34-.09-.68-.2-1-.3-1.79-.55-3.56-1.09-5.3-1.61-.57-.16-1.16-.34-1.72-.52-1.99-.61-3.92-1.2-5.8-1.77-4.04-1.22-7.87-2.38-11.45-3.51-2.74-.84-5.37-1.65-7.84-2.4l-.32-.11c-1.22-.36-2.38-.72-3.51-1.07-.66-.2-1.31-.39-1.93-.61-.63-.2-1.25-.38-1.86-.57-.52-.16-1.04-.3-1.54-.47-36.1-11.19-54.12-41.61-54.12-91.23,0-33.61,7.87-66.39,23.62-98.43,15.73-31.98,32.12-48.8,49.2-50.41,52.45-7.98,80.68-11.99,84.61-11.99,20.96,0,46.89,3.6,77.72,10.79,18.56,4.35,31.55,25.11,38.91,62.26,.25,1.27,.5,2.56,.73,3.87,.36,1.84,.68,3.74,.98,5.66,.13,.82,.27,1.66,.39,2.49,.12,.84,.25,1.68,.38,2.54,.38,2.54,.72,5.15,1.06,7.84,.23,1.77,.45,3.58,.63,5.42,.3,2.76,.57,5.58,.84,8.46,.43,4.8,.8,9.79,1.11,14.94,.07,1.04,.13,2.08,.18,3.11,.13,2.09,.23,4.22,.32,6.37,.18,3.99,.32,8.07,.43,12.24,.03,1.23,.07,2.49,.09,3.74,.02,.34,.02,.7,.02,1.06,.04,1.27,.05,2.54,.07,3.83,.07,4.37,.11,8.84,.11,13.42,0,17.63-.68,43.61-1.97,78.01Zm759.51,0c-1.31,34.43-1.95,58.82-1.95,73.23-2.95-.88-5.87-1.75-8.75-2.6-10.97-3.27-21.56-6.44-31.77-9.48-4.6-1.36-9.11-2.72-13.55-4.04-.27-.07-.54-.16-.8-.23-2.95-.89-5.85-1.75-8.72-2.61-2.86-.86-5.69-1.72-8.5-2.54-3.29-.98-6.51-1.95-9.72-2.9-1.43-.43-2.86-.86-4.29-1.29-2.45-.75-4.89-1.47-7.28-2.18-.39-.11-.77-.21-1.16-.34-3.72-1.13-7.37-2.22-10.97-3.29-.43-.13-.84-.25-1.27-.38-2.2-.68-4.38-1.32-6.53-1.97-.45-.13-.89-.25-1.34-.39-1.81-.54-3.58-1.07-5.35-1.61-3.97-1.2-7.86-2.36-11.65-3.51-1.25-.38-2.51-.75-3.76-1.13-3.08-.91-6.1-1.83-9.06-2.72-1.97-.59-3.9-1.18-5.82-1.75-.97-.29-1.91-.57-2.86-.86-1.88-.57-3.74-1.13-5.57-1.68-.57-.16-1.13-.32-1.66-.5-1.52-.47-3.03-.91-4.51-1.36-1.41-.43-2.83-.86-4.2-1.27-2.77-.84-5.48-1.66-8.11-2.45-1.31-.39-2.59-.79-3.88-1.18-.32-.09-.66-.2-.98-.3-.75-.23-1.5-.45-2.26-.68-2.24-.68-4.4-1.34-6.53-1.99-2.11-.64-4.17-1.27-6.17-1.88-.66-.2-1.32-.41-1.99-.61-2.36-.72-4.63-1.41-6.84-2.09-.73-.21-1.45-.45-2.17-.66-.16-.04-.3-.09-.45-.14-1.99-.61-3.88-1.18-5.73-1.75-.11-.04-.21-.07-.32-.11-1.2-.36-2.36-.72-3.51-1.07-1.23-.38-2.43-.75-3.6-1.11-.07-.02-.12-.05-.2-.07-.52-.16-1.02-.3-1.52-.47-36.1-11.19-54.12-41.61-54.12-91.23,0-33.61,7.87-66.39,23.62-98.43,15.73-31.98,32.12-48.8,49.18-50.41,52.45-7.98,80.69-11.99,84.61-11.99,20.97,0,46.89,3.6,77.74,10.79,18.56,4.35,31.53,25.11,38.91,62.26,.66,3.33,1.29,6.76,1.84,10.34,.18,1.04,.34,2.09,.48,3.15,.05,.36,.11,.7,.16,1.06,.25,1.7,.5,3.42,.72,5.17,.02,.09,.02,.2,.04,.29,.14,1.11,.29,2.22,.41,3.35,.14,1.13,.27,2.27,.39,3.42,.25,2.17,.48,4.38,.7,6.64,0,.13,.02,.27,.04,.39,.11,1.2,.21,2.4,.32,3.62,.11,1.22,.21,2.45,.3,3.69,.09,1.13,.18,2.29,.27,3.44,.18,2.63,.36,5.3,.52,8,.07,1.31,.14,2.63,.21,3.95,.27,5.3,.48,10.79,.63,16.45,.04,1.23,.07,2.49,.09,3.74,.02,.34,.02,.7,.02,1.06,.03,1.27,.05,2.54,.07,3.83,.07,4.37,.11,8.84,.11,13.42,0,17.63-.66,43.61-1.97,78.01Zm-501.34,495.85v.05s.09,.04,.12,.04c-.04-.04-.07-.05-.12-.09Z"/>
        <path class="cls-1" d="M763.88,912.36v.05s.09,.04,.12,.04c-.04-.04-.07-.05-.12-.09Zm166.4,31.23c4.92,.79,9.91,1.58,14.96,2.34-5.06-.79-10.04-1.58-14.96-2.34Zm-440.46-227.89c.43-4.49,.82-9.06,1.22-13.67-.39,4.62-.81,9.18-1.22,13.67Zm667.94-257.47c3.6,1.09,7.25,2.18,10.97,3.29-3.72-1.13-7.37-2.22-10.97-3.29Zm-71.69-21.58c2.63,.81,5.33,1.61,8.11,2.45-2.77-.84-5.48-1.66-8.11-2.45Zm-796.5-11.29c2.47,.77,5.08,1.57,7.84,2.4-2.74-.84-5.37-1.65-7.84-2.4Zm36.99,11.29c2.61,.81,5.32,1.61,8.09,2.45-2.77-.84-5.46-1.66-8.09-2.45Zm71.67,21.58c3.6,1.09,7.25,2.18,10.97,3.29-3.72-1.13-7.37-2.22-10.97-3.29Zm104.6-200.17c.38,2.54,.72,5.15,1.06,7.84-.32-2.68-.66-5.3-1.06-7.84Zm1.68,13.26c.3,2.76,.57,5.58,.84,8.46-.25-2.88-.54-5.71-.84-8.46Zm-214.95,154.03c2.47,.77,5.08,1.57,7.84,2.4-2.74-.84-5.37-1.65-7.84-2.4Zm36.99,11.29c2.61,.81,5.32,1.61,8.09,2.45-2.77-.84-5.46-1.66-8.09-2.45Zm71.67,21.58c3.6,1.09,7.25,2.18,10.97,3.29-3.72-1.13-7.37-2.22-10.97-3.29Zm104.6-200.17c.38,2.54,.72,5.15,1.06,7.84-.32-2.68-.66-5.3-1.06-7.84Zm1.68,13.26c.3,2.76,.57,5.58,.84,8.46-.25-2.88-.54-5.71-.84-8.46Zm653.25,186.91c3.6,1.09,7.25,2.18,10.97,3.29-3.72-1.13-7.37-2.22-10.97-3.29Zm-71.69-21.58c2.63,.81,5.33,1.61,8.11,2.45-2.77-.84-5.48-1.66-8.11-2.45Zm71.69,21.58c3.6,1.09,7.25,2.18,10.97,3.29-3.72-1.13-7.37-2.22-10.97-3.29Zm-71.69-21.58c2.63,.81,5.33,1.61,8.11,2.45-2.77-.84-5.48-1.66-8.11-2.45Zm-155.79,506.94c4.92,.79,9.91,1.58,14.96,2.34-5.06-.79-10.04-1.58-14.96-2.34ZM289.56,425.36c2.47,.77,5.08,1.57,7.84,2.4-2.74-.84-5.37-1.65-7.84-2.4Zm36.99,11.29c2.61,.81,5.32,1.61,8.09,2.45-2.77-.84-5.46-1.66-8.09-2.45Zm71.67,21.58c3.6,1.09,7.25,2.18,10.97,3.29-3.72-1.13-7.37-2.22-10.97-3.29Zm104.6-200.17c.38,2.54,.72,5.15,1.06,7.84-.32-2.68-.66-5.3-1.06-7.84Zm1.68,13.26c.3,2.76,.57,5.58,.84,8.46-.25-2.88-.54-5.71-.84-8.46Z"/>
      </g>
      <g>
        <path d="M1483.04,907.08h41.18c-.86,5.98-1.72,11.92-2.61,17.86-1.32,11.22-1.97,21.6-1.97,31.21,0,3.29,.11,6.5,.3,9.63-21.51-12.85-33.56-32.09-36.9-58.7Z"/>
        <path d="M1545.21,211.94c0,4.81,1.29,10.43,3.94,16.8,3.94,16.02,5.91,87.24,5.91,213.66,0,76.38-2.18,150.44-6.55,222.13-.61,.16-1.2,.34-1.79,.52l-41.56,13.06c8.2-96.25,12.31-196.98,12.31-301.21,0-171.71-3.63-206.38-6.37-217.51l-.29-1.18-.48-1.15c-2.34-5.66-2.7-9.07-2.7-10.61,.91-.61,4.08-2.33,12.19-3.11h81.23c.05,.02,.09,.05,.14,.07h-1.04c.57,.27,1.15,.54,1.72,.81h-1.06c.57,.27,1.15,.54,1.72,.81h-1.06c.57,.27,1.15,.54,1.72,.81h-1.06c.57,.29,1.15,.54,1.72,.82h-1.06c.57,.27,1.14,.52,1.72,.81h-1.06c.57,.27,1.14,.54,1.72,.81h-1.06c.57,.27,1.15,.54,1.72,.81h-1.06c.57,.27,1.15,.54,1.72,.81h-1.06c.57,.27,1.15,.54,1.72,.81h-1.06c.57,.29,1.15,.54,1.72,.82h-1.06c.57,.27,1.15,.54,1.72,.81h-1.06c.57,.27,1.15,.54,1.72,.81h-1.06c.57,.27,1.14,.54,1.72,.81h-1.06c.57,.27,1.14,.54,1.72,.81h-1.06c.57,.29,1.15,.54,1.72,.82h-1.06c.57,.27,1.16,.52,1.72,.81h-1.04c.55,.27,1.15,.54,1.7,.81h-1.04c.55,.27,1.15,.54,1.7,.81h-1.04c.55,.27,1.15,.54,1.7,.81h-1.04c.55,.29,1.14,.54,1.7,.81h-1.04c.55,.29,1.15,.54,1.7,.82h-1.04c.55,.27,1.15,.54,1.7,.81h-1.04c.55,.27,1.15,.54,1.7,.81h-1.04c.55,.27,1.14,.54,1.7,.81h-1.04c.55,.27,1.14,.54,1.7,.81h-1.04c.55,.29,1.15,.54,1.7,.82h-1.04c.57,.27,1.15,.52,1.7,.81h-1.04c.57,.27,1.15,.54,1.72,.81h-1.06c.57,.27,1.15,.54,1.72,.81h-1.06c.57,.27,1.15,.54,1.72,.81h-1.06c.57,.29,1.15,.54,1.72,.82h-1.06c.57,.27,1.14,.52,1.72,.81h-1.06c.57,.27,1.14,.54,1.72,.81h-1.06c.57,.27,1.15,.54,1.72,.81h-1.06c.57,.27,1.15,.54,1.72,.81h-1.06c.57,.27,1.15,.54,1.72,.81h-1.06c.57,.29,1.15,.54,1.72,.82h-1.06c.57,.27,1.15,.54,1.72,.81h-1.06c.57,.27,1.15,.54,1.72,.81h-1.06c.57,.27,1.14,.54,1.72,.81h-1.06c.57,.27,1.14,.54,1.72,.81h-1.06c.57,.29,1.15,.54,1.72,.82h-1.06c.57,.27,1.16,.52,1.72,.81h-1.04c.55,.27,1.15,.54,1.7,.81h-1.04c.55,.27,1.15,.54,1.7,.81h-1.04c.55,.27,1.15,.54,1.7,.81h-1.04c.55,.29,1.14,.54,1.7,.82h-1.04c.55,.27,1.15,.52,1.7,.81h-1.04c.55,.27,1.15,.54,1.7,.81h-1.04c.55,.27,1.15,.54,1.7,.81h-1.04c.55,.27,1.14,.54,1.7,.81h-1.04c.55,.27,1.14,.54,1.7,.81h-1.04c.55,.29,1.15,.54,1.7,.82h-1.04c.57,.27,1.15,.54,1.7,.81h-1.04c.57,.27,1.15,.54,1.72,.81h-1.06c.57,.27,1.15,.54,1.72,.81h-1.06c.57,.27,1.15,.54,1.72,.81h-1.06c.57,.29,1.15,.54,1.72,.82h-1.06c.57,.27,1.14,.52,1.72,.81h-1.06c.57,.27,1.14,.54,1.72,.81h-1.06c.57,.27,1.15,.54,1.72,.81h-68.88c-18.38,1.61-27.54,8.04-27.54,19.2Z"/>
        <path d="M1039.69,405.38c-.13-2.79-.2-5.66-.2-8.59,0-33.61,7.88-66.39,23.62-98.43,15.73-31.98,32.12-48.8,49.18-50.41,52.45-7.98,80.69-11.99,84.61-11.99,13.3,0,28.56,1.45,45.81,4.35-.79-3.45-1.63-6.71-2.54-9.79-4.08-13.83-11.35-30.87-22.89-33.57-29.4-6.87-54.24-10.36-73.86-10.38-2.9,.16-17.57,1.93-82.39,11.81l-.45,.07-.46,.04c-10.56,1-23.77,16.12-36.26,41.48-14.57,29.65-21.96,60.38-21.96,91.32,0,21.78,3.79,39.21,11.28,51.83,6.12,10.33,14.82,17.65,26.5,22.26Z"/>
        <path d="M249.69,52.56c-.55,.21-1.11,.43-1.65,.64,.47-.11,.95-.21,1.41-.32,.09-.11,.16-.21,.23-.32Z"/>
        <path d="M457.76,196.94c-29.4-6.87-54.24-10.36-73.86-10.38-2.9,.16-17.57,1.93-82.39,11.81l-.45,.07-.47,.04c-10.56,1-23.77,16.12-36.26,41.48-14.57,29.65-21.96,60.38-21.96,91.32,0,21.78,3.79,39.21,11.27,51.83,6.14,10.33,14.82,17.65,26.5,22.26-.12-2.79-.2-5.66-.2-8.59,0-33.61,7.87-66.39,23.62-98.43,15.73-31.98,32.12-48.8,49.2-50.41,52.45-7.98,80.68-11.99,84.61-11.99,13.28,0,28.54,1.45,45.8,4.35-.79-3.45-1.65-6.71-2.54-9.79-4.08-13.83-11.35-30.87-22.89-33.57Z"/>
        <path d="M966.23,65.16c12.96-4.65,27.22-8.75,42.77-12.28l.21-.32c-.55,.21-1.11,.43-1.66,.64,.34-.48,.66-.95,1-1.45-.55,.21-1.11,.43-1.66,.64,.34-.48,.66-.97,1-1.45l-1.66,.64c.34-.48,.66-.97,1-1.45-.55,.2-1.11,.43-1.66,.64,.34-.48,.66-.97,1-1.45-.55,.2-1.11,.43-1.66,.64,.34-.5,.66-.97,1-1.45-.55,.2-1.11,.43-1.66,.63,.34-.48,.66-.95,1-1.45l-1.66,.64c.34-.48,.66-.97,1-1.45l-1.66,.64c.34-.48,.66-.97,1-1.45-.55,.2-1.11,.43-1.66,.64,.34-.48,.66-.97,1-1.45-.55,.2-1.11,.43-1.66,.64,.34-.48,.66-.97,1-1.45-.55,.2-1.11,.43-1.66,.63,.34-.48,.66-.95,1-1.45l-1.66,.64c.34-.48,.66-.97,1-1.45-.55,.21-1.11,.43-1.66,.64,.34-.48,.64-.97,1-1.45-.56,.21-1.11,.43-1.66,.64,.34-.48,.64-.97,1-1.45-.55,.2-1.11,.43-1.66,.64,.34-.48,.64-.97,1-1.45-.55,.2-1.11,.43-1.66,.63,.34-.48,.64-.95,1-1.45l-1.66,.64c.34-.48,.64-.95,.98-1.45-.54,.21-1.09,.43-1.65,.64,.34-.48,.64-.97,.98-1.45-.54,.21-1.09,.43-1.65,.64,.34-.48,.64-.97,.98-1.45-.55,.2-1.09,.43-1.65,.64,.32-.48,.64-.97,.98-1.45-.55,.2-1.09,.43-1.65,.64,.32-.5,.64-.97,.98-1.45-.55,.2-1.09,.43-1.65,.63,.32-.48,.64-.95,.98-1.45-.55,.21-1.09,.43-1.65,.64,.32-.48,.64-.97,.98-1.45-.55,.21-1.09,.43-1.65,.64,.32-.48,.64-.97,.98-1.45-.55,.2-1.11,.43-1.65,.64,.32-.48,.64-.97,.98-1.45-.55,.2-1.11,.43-1.65,.64,.32-.48,.64-.97,.98-1.45-.55,.2-1.11,.43-1.65,.63,.32-.48,.64-.95,.98-1.45-.55,.21-1.11,.43-1.66,.64,.34-.48,.66-.97,1-1.45l-1.66,.64c.34-.48,.66-.97,1-1.45l-1.66,.64c.34-.48,.66-.97,1-1.45-.55,.2-1.11,.43-1.66,.64,.34-.48,.66-.97,1-1.45-.55,.2-1.11,.43-1.66,.64,.34-.5,.66-.97,1-1.45-.55,.2-1.11,.43-1.66,.63,.34-.48,.66-.95,1-1.45l-1.66,.64c.34-.48,.66-.97,1-1.45l-1.66,.64c.34-.48,.66-.97,1-1.45-.55,.2-1.11,.43-1.66,.64,.34-.48,.66-.97,1-1.45-.55,.2-1.11,.43-1.66,.64,.34-.48,.66-.97,1-1.45-.55,.2-1.11,.43-1.66,.63,.34-.48,.66-.95,1-1.45l-1.66,.64c.34-.48,.66-.97,1-1.45-.55,.21-1.11,.43-1.66,.64,.34-.48,.64-.97,1-1.45-.56,.21-1.11,.43-1.66,.64,.34-.48,.64-.97,1-1.45-.55,.2-1.11,.43-1.66,.64,.34-.48,.64-.97,1-1.45-.55,.2-1.11,.43-1.66,.63,.34-.48,.64-.95,1-1.45l-1.66,.64c.34-.48,.64-.95,.98-1.45-.54,.21-1.09,.43-1.65,.64,.34-.48,.64-.97,.98-1.45-.54,.21-1.09,.43-1.65,.64,.34-.48,.64-.97,.98-1.45-.55,.2-1.09,.43-1.65,.64,.32-.48,.64-.97,.98-1.45-.55,.2-1.09,.43-1.65,.64,.32-.5,.64-.97,.98-1.45-.52,.18-1.04,.41-1.56,.59-11.27,17.14-17.22,32.03-17.22,43.27,0,3.44,0,6.23,7.61,7.53Z"/>
        <path d="M206.7,65.16c12.56-4.51,26.36-8.5,41.34-11.95,.32-.48,.64-.95,.98-1.45-.55,.21-1.11,.43-1.65,.64,.32-.48,.64-.97,.98-1.45-.55,.21-1.11,.43-1.65,.64,.32-.48,.64-.97,.98-1.45-.55,.2-1.11,.43-1.66,.64,.34-.48,.66-.97,1-1.45-.55,.2-1.11,.43-1.66,.64,.34-.5,.66-.97,1-1.45-.55,.2-1.11,.43-1.66,.63,.34-.48,.66-.95,1-1.45l-1.66,.64c.34-.48,.66-.97,1-1.45-.55,.21-1.11,.43-1.66,.64,.34-.48,.66-.97,1-1.45-.55,.2-1.11,.43-1.66,.64,.34-.48,.66-.97,1-1.45-.55,.2-1.11,.43-1.66,.64,.34-.48,.66-.97,1-1.45-.55,.2-1.11,.43-1.66,.63,.34-.48,.66-.95,1-1.45l-1.66,.64c.34-.48,.66-.97,1-1.45l-1.66,.64c.34-.48,.66-.97,1-1.45l-1.66,.64c.34-.48,.66-.97,1-1.45-.55,.2-1.11,.43-1.66,.64,.34-.48,.66-.97,1-1.45-.55,.2-1.11,.43-1.66,.63,.34-.48,.66-.95,1-1.45l-1.66,.64c.34-.48,.64-.95,1-1.45l-1.66,.64c.34-.48,.64-.97,1-1.45-.55,.21-1.11,.43-1.66,.64,.34-.48,.64-.97,1-1.45-.55,.2-1.11,.43-1.66,.64,.34-.48,.64-.97,.98-1.45-.54,.2-1.09,.43-1.65,.64,.34-.5,.64-.97,.98-1.45-.54,.2-1.09,.43-1.65,.63,.34-.48,.64-.95,.98-1.45-.56,.21-1.09,.43-1.65,.64,.32-.48,.64-.97,.98-1.45-.55,.21-1.09,.43-1.65,.64,.32-.48,.64-.97,.98-1.45-.55,.2-1.09,.43-1.65,.64,.32-.48,.64-.97,.98-1.45-.55,.2-1.09,.43-1.65,.64,.32-.48,.64-.97,.98-1.45-.55,.2-1.09,.43-1.65,.63,.32-.48,.64-.95,.98-1.45-.55,.21-1.11,.43-1.65,.64,.32-.48,.64-.97,.98-1.45-.55,.21-1.11,.43-1.65,.64,.32-.48,.64-.97,.98-1.45-.55,.21-1.11,.43-1.65,.64,.32-.48,.64-.97,.98-1.45-.55,.2-1.11,.43-1.66,.64,.34-.48,.66-.97,1-1.45-.55,.2-1.11,.43-1.66,.64,.34-.5,.66-.97,1-1.45-.55,.2-1.11,.43-1.66,.63,.34-.48,.66-.95,1-1.45l-1.66,.64c.34-.48,.66-.97,1-1.45-.55,.21-1.11,.43-1.66,.64,.34-.48,.66-.97,1-1.45-.55,.2-1.11,.43-1.66,.64,.34-.48,.66-.97,1-1.45-.55,.2-1.11,.43-1.66,.64,.34-.48,.66-.97,1-1.45-.55,.2-1.11,.43-1.66,.63,.34-.48,.66-.95,1-1.45l-1.66,.64c.34-.48,.66-.97,1-1.45l-1.66,.64c.34-.48,.66-.97,1-1.45-.55,.21-1.11,.43-1.66,.64,.34-.48,.66-.97,1-1.45-.55,.2-1.11,.43-1.66,.64,.34-.48,.66-.97,1-1.45-.55,.2-1.11,.43-1.66,.63,.34-.48,.66-.95,1-1.45l-1.66,.64c.34-.48,.64-.95,1-1.45-.55,.21-1.11,.43-1.66,.64,.34-.48,.64-.97,1-1.45l-1.66,.64c.34-.48,.64-.97,1-1.45-.55,.2-1.11,.43-1.66,.64,.34-.48,.64-.97,.98-1.45-.54,.2-1.09,.43-1.65,.64,.34-.5,.64-.97,.98-1.45-.5,.18-1.02,.39-1.54,.59-11.29,17.14-17.23,32.03-17.23,43.27,0,3.44,0,6.23,7.61,7.53Z"/>
        <path d="M722.81,879.66l41.34,12.37c.82,.25,1.65,.5,2.49,.73,16.86-122.61,26.36-253.14,28.44-391.68-16.34-24.5-28.81-50.16-37.42-76.88-1.88,155.18-13.06,302.11-33.3,437.36-.73,6.26-1.25,12.31-1.54,18.09Z"/>
        <path d="M838.13,1056.14s0,0,0,0l-.66-.8h0s0,0,0,0l-.66-.8h0s0,0,0,0l-.66-.8h0l-1.33-1.63s0,0,.01,0c0,0,0,0-.01,0l-.66-.8s0,0,0,0c0,0,0,0-.01,0l-6.63-8.09h0l-3.32-4.04h0s0,0,0,0l-.66-.8h0s0,0,0,0l-3.31-4.04s0,0,0,0c0,0,0,0,0,0l-.66-.8s0,0,0,0c0,0,0,0,0,0l-.66-.8h0s0,0,0,0l-.66-.8h0l-1.34-1.63s0,0,.01,0c0,0,0,0-.01,0l-.66-.8s0,0,0,0c0,0,0,0-.01,0l-6.63-8.09h0l-3.32-4.04s0,0,0,0c0,0,0,0,0,0l-.66-.8h0s0,0,0,0l-3.31-4.04s0,0,0,0c0,0,0,0,0,0l-.66-.8h0s0,0,0,0l-.66-.8h0s0,0,0,0l-.66-.8c-.68-.18-1.34-.38-1.99-.55l-10.56,.47c-71.87,3.22-143.72,6.39-215.58,9.57-22.12,3.49-38.62,10.74-49.04,21.55-10.2,10.58-15.16,24.97-15.16,44.01,0,12.94,2.45,28.47,7.3,46.17l6.73,24.59-25.09-4.47c-81.57-14.57-167.53-41.59-255.47-80.34-72.71-31.41-138.44-67.77-196.2-108.52-.09-.04-.16-.05-.25-.07,.39,.32,.79,.63,1.18,.95-.18-.05-.34-.09-.52-.14,.39,.32,.79,.63,1.18,.95-.16-.04-.34-.09-.52-.14,.39,.32,.79,.64,1.18,.97-.16-.05-.34-.11-.52-.16,.39,.32,.79,.64,1.18,.97-.16-.05-.34-.11-.52-.16l1.18,.97c-.16-.05-.34-.11-.5-.16,.38,.32,.77,.64,1.16,.97-.16-.05-.34-.11-.5-.14,.38,.32,.77,.63,1.16,.95-.16-.05-.34-.09-.5-.14,.38,.32,.79,.63,1.16,.95-.16-.04-.34-.09-.5-.14,.38,.32,.79,.64,1.16,.97-.16-.05-.34-.11-.5-.16,.38,.32,.79,.64,1.16,.97-.16-.05-.34-.11-.5-.16,.38,.32,.79,.64,1.16,.97-.16-.05-.34-.11-.5-.14,.38,.32,.79,.63,1.16,.95-.16-.05-.34-.09-.5-.14,.38,.32,.79,.63,1.16,.95-.16-.04-.34-.09-.5-.14,68.99,57.61,151.63,107.23,247.97,148.84,87.19,38.41,171.12,64.82,251.84,79.23-5.26-19.22-7.87-36.03-7.87-50.41,0-46.4,26.22-73.61,78.71-81.62,72.14-3.19,144.3-6.39,216.45-9.61l-2.65-3.24s0,0,0,0Z"/>
        <path d="M909.62,526.43c6.55,0,14.42,1.61,23.62,4.8,93.06,34.36,195.07,67.58,305.99,99.72,.57-10.74,1.07-21.76,1.54-33.05-134.29-37.4-257.58-76.74-366.64-116.99-9.25-3.19-15-3.87-18.2-3.87-3.95,0-4.76,1.02-5.03,1.36-.57,.75-2.47,3.85-2.47,12.69,0,9.47,1.83,21.4,5.4,35.49l8.68,34.11c.09,.11,.18,.21,.27,.32,.21,.27,.43,.54,.66,.81,.21,.27,.43,.54,.66,.81,.21,.27,.45,.54,.66,.81,.21,.27,.45,.54,.66,.81s.45,.54,.66,.81c.21,.29,.45,.55,.66,.82,.21,.27,.45,.54,.66,.81,.21,.27,.45,.54,.66,.81,.21,.27,.45,.54,.66,.81,.21,.27,.45,.54,.66,.81,.23,.27,.45,.54,.66,.82,.23,.27,.45,.54,.66,.81,.23,.27,.45,.54,.66,.81,.23,.27,.45,.54,.66,.81,.23,.27,.45,.54,.66,.81,.23,.27,.45,.54,.66,.81,.23,.29,.45,.55,.66,.82,.23,.27,.45,.54,.66,.81,.23,.27,.45,.54,.68,.81,.21,.27,.43,.54,.66,.81,.21,.27,.43,.54,.64,.81,.23,.27,.45,.54,.68,.82,.21,.27,.43,.54,.66,.81,.21,.27,.43,.54,.66,.81,.21,.27,.43,.54,.66,.81,.21,.27,.43,.54,.66,.82,.21,.27,.43,.54,.66,.81,.21,.27,.43,.54,.66,.81,.21,.27,.43,.54,.66,.81,3.19,3.9,6.5,7.77,9.91,11.6-3.94-15.44-5.91-28.62-5.91-39.46,0-20.1,7.87-30.16,23.6-30.16Z"/>
        <path d="M1599.65,1058.57c-.88-.23-1.72-.48-2.56-.73,.63-.02,1.25-.05,1.9-.07-.88-.23-1.72-.48-2.56-.73,.63-.02,1.25-.05,1.9-.07-.88-.23-1.72-.48-2.56-.73,.63-.02,1.25-.05,1.9-.09-.88-.23-1.72-.48-2.56-.72,.63-.04,1.25-.05,1.88-.09-.86-.23-1.7-.48-2.54-.72,.63-.04,1.25-.05,1.88-.09-.86-.23-1.7-.48-2.54-.72,.63-.04,1.25-.07,1.88-.09-.86-.23-1.7-.48-2.54-.73,.63-.02,1.25-.05,1.88-.07-.86-.23-1.7-.48-2.54-.73,.63-.02,1.25-.05,1.88-.09-.86-.21-1.7-.48-2.54-.72,.63-.04,1.25-.05,1.88-.09-.86-.23-1.7-.48-2.54-.72,.63-.04,1.25-.05,1.88-.09-.86-.23-1.7-.48-2.54-.72,.63-.04,1.25-.07,1.88-.09-.86-.23-1.7-.48-2.54-.73,.63-.02,1.25-.05,1.88-.07-.86-.23-1.7-.48-2.56-.73,.64-.02,1.27-.05,1.9-.07-.86-.23-1.7-.48-2.56-.73,.64-.04,1.27-.05,1.9-.09-.86-.23-1.7-.48-2.56-.72,.64-.04,1.27-.05,1.9-.09-.86-.23-1.7-.48-2.56-.72,.64-.04,1.27-.05,1.9-.09-.86-.23-1.7-.48-2.56-.73,.64-.02,1.27-.05,1.9-.07-.86-.23-1.7-.48-2.56-.73,.64-.02,1.27-.05,1.9-.07-.86-.23-1.7-.48-2.56-.73,.63-.02,1.27-.05,1.9-.09-.86-.23-1.7-.48-2.56-.72,.63-.04,1.27-.05,1.9-.09-.86-.23-1.7-.48-2.56-.72,.63-.04,1.27-.05,1.9-.09-.86-.23-1.7-.48-2.56-.72,.63-.04,1.27-.07,1.9-.09-.88-.23-1.7-.48-2.56-.73,.63-.02,1.27-.05,1.9-.07-.88-.23-1.7-.48-2.56-.73,.63-.02,1.27-.05,1.9-.09-.88-.21-1.7-.46-2.56-.72,.63-.04,1.25-.05,1.9-.09-.88-.23-1.7-.48-2.56-.72,.63-.04,1.25-.05,1.9-.09-.88-.23-1.7-.48-2.56-.72,.63-.04,1.25-.05,1.9-.09-.88-.23-1.72-.48-2.56-.73,.63-.02,1.25-.05,1.9-.07-.88-.23-1.72-.48-2.56-.73,.63-.02,1.25-.05,1.9-.07-.88-.23-1.72-.48-2.56-.73,.63-.04,1.25-.05,1.9-.09-.88-.23-1.72-.48-2.56-.72,.63-.04,1.25-.05,1.88-.09-.86-.23-1.7-.48-2.54-.72,.63-.04,1.25-.05,1.88-.09-.86-.23-1.7-.48-2.54-.72,.63-.04,1.25-.07,1.88-.09-.86-.23-1.7-.48-2.54-.73,.63-.02,1.25-.05,1.88-.07-.86-.23-1.7-.48-2.54-.73,.63-.02,1.25-.05,1.88-.09-.86-.21-1.7-.48-2.54-.72,.63-.04,1.25-.05,1.88-.09-.86-.23-1.7-.48-2.54-.72,.63-.04,1.25-.05,1.88-.09-.86-.23-1.7-.48-2.54-.72,.63-.04,1.25-.07,1.88-.09-.86-.23-1.7-.48-2.54-.73,.63-.02,1.25-.05,1.88-.07-.86-.23-1.7-.48-2.56-.73,.64-.02,1.27-.05,1.9-.07-.86-.23-1.7-.48-2.56-.73,.64-.04,1.27-.05,1.9-.09-.86-.23-1.7-.48-2.56-.72,.64-.04,1.27-.05,1.9-.09-.86-.23-1.7-.48-2.56-.72,.64-.04,1.27-.05,1.9-.09-.86-.23-1.7-.48-2.56-.73,.64-.02,1.27-.05,1.9-.07-.86-.23-1.7-.48-2.56-.73,.64-.02,1.27-.05,1.9-.07-.86-.23-1.7-.48-2.56-.73,.63-.02,1.27-.05,1.9-.09-.86-.23-1.7-.48-2.56-.72,.63-.04,1.27-.05,1.9-.09-.86-.23-1.7-.48-2.56-.72,.63-.04,1.27-.05,1.9-.09-.86-.23-1.7-.48-2.56-.72,.63-.04,1.27-.07,1.9-.09-.88-.23-1.7-.48-2.56-.73,.63-.02,1.27-.05,1.9-.07-.88-.23-1.7-.48-2.56-.73,.63-.02,1.27-.05,1.9-.09-.88-.21-1.7-.48-2.56-.72,.63-.04,1.25-.05,1.9-.09-.88-.23-1.7-.48-2.56-.72,.63-.04,1.25-.05,1.9-.09-.88-.23-1.7-.48-2.56-.72,.63-.04,1.25-.07,1.9-.09-.88-.23-1.72-.48-2.56-.73,.63-.02,1.25-.05,1.9-.07-.88-.23-1.72-.48-2.56-.73,.63-.02,1.25-.05,1.9-.07-.88-.23-1.72-.48-2.56-.73,.63-.04,1.25-.05,1.9-.09-.88-.23-1.72-.48-2.56-.72,.63-.04,1.25-.05,1.88-.09-.86-.23-1.7-.48-2.54-.72,.63-.04,1.25-.05,1.88-.09-.86-.23-1.7-.48-2.54-.73,.63-.02,1.25-.05,1.88-.07-.66-.18-1.31-.38-1.95-.55l-10.58,.47c-71.87,3.22-143.74,6.39-215.58,9.57-22.12,3.49-38.62,10.74-49.04,21.55-10.2,10.58-15.16,24.97-15.16,44.01,0,12.96,2.45,28.47,7.3,46.17l6.73,24.59-25.09-4.47c-81.57-14.57-167.53-41.59-255.49-80.34-45.64-19.7-88.51-41.38-128.4-64.87-17.13-10.56-51.79-32.39-67.7-43.63-.11-.04-.21-.07-.32-.09l3.98,4.85s0,0-.01,0c0,0,.02,.02,.03,.02l.64,.79s0,0-.01,0c0,0,.02,.01,.03,.02l.65,.79s0,0,0,0c0,0,.01,.01,.02,.02l1.98,2.42s0,0,0,0c0,0,0,0,0,0l.66,.8s0,0,0,0l.66,.8c6.8,5.69,36.4,28.42,43.47,33.93,59.47,43.4,127.62,81.71,204.48,114.91,87.21,38.41,171.14,64.82,251.85,79.23-5.26-19.22-7.87-36.03-7.87-50.41,0-46.4,26.22-73.61,78.71-81.62,72.12-3.19,144.3-6.39,216.45-9.61-.88-.23-1.7-.48-2.56-.72,.63-.04,1.25-.05,1.9-.09Z"/>
        <path d="M1424.73,683.01l-43.24,203.28h51.56l43.25-203.28h-51.58Zm119.39,310.18c-.79-.21-1.59-.45-2.38-.7-.05,0-.11-.02-.16-.04-.79-.23-1.57-.48-2.34-.73-2.77-.88-5.48-1.83-8.11-2.83-.98-.38-1.95-.75-2.9-1.15-.91-.36-1.81-.75-2.7-1.13-.09-.04-.2-.07-.29-.13-.88-.39-1.75-.79-2.61-1.18-1.34-.63-2.65-1.25-3.94-1.92-1-.5-1.97-1-2.94-1.54-1.04-.55-2.06-1.13-3.06-1.74-.18-.09-.34-.18-.52-.3-.72-.39-1.41-.82-2.11-1.29-.43-.25-.86-.52-1.29-.81-.66-.41-1.31-.82-1.93-1.29-.25-.14-.48-.3-.73-.48-.93-.63-1.86-1.29-2.76-1.97-.97-.7-1.9-1.43-2.81-2.17-1.18-.95-2.33-1.9-3.44-2.9-.61-.52-1.2-1.06-1.77-1.59-.12-.13-.25-.23-.38-.36-.64-.61-1.29-1.22-1.88-1.84-.29-.27-.54-.52-.77-.77-.55-.55-1.09-1.11-1.59-1.68-.21-.21-.41-.43-.59-.64-.59-.64-1.16-1.29-1.72-1.95-.18-.2-.36-.41-.5-.61-.39-.45-.77-.89-1.13-1.36-.38-.47-.75-.95-1.11-1.41-1.91-2.49-3.67-5.06-5.3-7.75-.27-.41-.52-.84-.75-1.27-.32-.54-.64-1.11-.95-1.66-.21-.38-.43-.75-.61-1.15-.3-.54-.59-1.09-.86-1.65-.25-.43-.46-.89-.68-1.34-.32-.64-.63-1.31-.93-1.97-.14-.3-.29-.61-.41-.91-.43-.93-.82-1.86-1.2-2.81-.04-.05-.05-.13-.07-.18-.3-.75-.61-1.5-.88-2.27-.52-1.34-.98-2.72-1.43-4.1-.2-.57-.38-1.15-.54-1.74-.3-.95-.59-1.92-.84-2.88-.2-.72-.39-1.43-.57-2.17-.12-.46-.23-.95-.34-1.43-.18-.72-.34-1.43-.5-2.17-.18-.88-.36-1.75-.52-2.63-.39-2-.73-4.04-1.02-6.12-.16-1.13-.3-2.27-.43-3.42h-214.66l17.04-80.3h-35.4c-.2,1.02-.41,2.04-.63,3.04-.39,1.9-.79,3.78-1.2,5.62-6.51,30.41-20.19,72.84-41,127.22-6.53,1.61-19.52,2.4-39.05,2.4-46.87,0-110.65-5.58-191.35-16.8-5.19-.77-10.31-1.54-15.36-2.33-5.06-.79-10.04-1.58-14.96-2.34-5.49-.88-10.92-1.75-16.25-2.65-4.19-.7-8.32-1.4-12.4-2.09-11.6-1.99-22.76-3.99-33.5-6.03-2.11-.39-4.21-.81-6.28-1.2-1.06-.2-2.11-.39-3.15-.61-2.17-.43-4.33-.84-6.46-1.27-6.39-1.27-12.62-2.54-18.68-3.83-2.02-.43-4.01-.86-6-1.29-5.1-1.11-10.06-2.2-14.91-3.33-2.7-.63-5.39-1.23-8.02-1.86-5.51-1.31-10.85-2.63-16.03-3.95-1.72-.45-3.42-.88-5.12-1.32-3.38-.88-6.69-1.77-9.93-2.67-3.11-.86-6.17-1.74-9.16-2.59-1.63-.48-3.26-.95-4.85-1.43,68.99,57.61,151.63,107.23,247.95,148.84,87.21,38.41,171.14,64.82,251.85,79.23-5.26-19.22-7.88-36.02-7.88-50.43,0-46.39,26.22-73.59,78.71-81.61,71.49-3.17,143.03-6.34,214.56-9.52,.63-.04,1.27-.05,1.9-.09-.84-.23-1.68-.45-2.51-.7Zm-25.05-865.94h68.88c-102.33-49.59-236.14-74.41-401.43-74.41-2.95,0-5.89,.02-8.79,.04-2.38,0-4.72,.04-7.07,.05-2.92,.04-5.82,.09-8.68,.14-2,.04-3.99,.07-5.98,.13-4.1,.09-8.16,.21-12.17,.34-2.74,.09-5.46,.2-8.16,.32-3.4,.13-6.75,.29-10.08,.47-1.97,.09-3.92,.2-5.85,.32-1.97,.11-3.94,.21-5.87,.36-1.14,.05-2.27,.13-3.38,.21-9.36,.63-18.42,1.38-27.2,2.25-1.43,.14-2.86,.29-4.28,.45-5.44,.57-10.76,1.18-15.96,1.86-1.25,.16-2.51,.32-3.76,.5-2.85,.38-5.67,.79-8.46,1.2-2.43,.36-4.83,.72-7.19,1.11-1.02,.16-2.04,.32-3.04,.5-1.52,.25-3.02,.5-4.51,.77-1.5,.25-2.99,.52-4.46,.81-2.2,.41-4.4,.82-6.57,1.25-2.15,.43-4.29,.88-6.41,1.32-18.7,3.97-35.56,8.77-50.54,14.39-17.07-1.58-25.59-9.59-25.59-24,0-15.64,7.53-34.36,22.62-56.18,.32-.48,.66-.97,1-1.45-47.23,17.56-92.49,57.39-135.78,119.51-1.5,2.18-2.99,4.37-4.44,6.55-102.01-48.78-234.98-73.23-398.92-73.23-2.95,0-5.89,.02-8.79,.04-2.38,0-4.72,.04-7.07,.05-2.92,.04-5.82,.09-8.68,.14-2,.04-3.99,.07-5.98,.13-4.12,.09-8.16,.21-12.19,.34-2.74,.09-5.46,.2-8.14,.32-3.42,.14-6.82,.29-10.17,.47-1.93,.11-3.87,.2-5.78,.32-1.97,.11-3.92,.21-5.87,.36-1.13,.05-2.25,.13-3.38,.21-9.29,.63-18.31,1.36-27.04,2.24-1.48,.14-2.97,.3-4.44,.47-5.3,.55-10.51,1.16-15.62,1.83-1.36,.16-2.74,.34-4.1,.54-2.85,.38-5.67,.79-8.46,1.2-2.42,.36-4.81,.72-7.2,1.11-1.02,.16-2.04,.32-3.04,.5-1.52,.25-3.02,.5-4.51,.77-1.5,.25-2.99,.52-4.46,.81-2.22,.41-4.4,.82-6.57,1.25-2.17,.43-4.29,.88-6.41,1.32-18.7,3.97-35.56,8.77-50.54,14.39-17.07-1.58-25.59-9.59-25.59-24,0-15.64,7.53-34.36,22.62-56.18,.32-.48,.66-.97,1-1.45-47.23,17.56-92.49,57.39-135.78,119.51C23.61,188.02,0,258.9,0,332.21c0,2.15,.02,4.29,.07,6.44,.04,1.83,.09,3.65,.16,5.48,.02,.59,.05,1.16,.07,1.74,.07,1.49,.14,2.95,.25,4.42,.02,.68,.07,1.38,.13,2.06,0,.11,0,.2,.02,.29,.11,1.56,.21,3.11,.36,4.67,.02,.25,.04,.5,.07,.77,.16,1.99,.36,3.97,.57,5.96,.18,1.79,.39,3.56,.63,5.33v.02l.21,1.66c.52,3.87,1.11,7.7,1.77,11.53,.39,2.17,.81,4.35,1.23,6.53,.39,1.93,.81,3.87,1.23,5.8,.41,1.86,.84,3.7,1.29,5.55,.14,.54,.27,1.06,.39,1.59,.34,1.34,.68,2.67,1.04,4.01,.21,.81,.43,1.59,.66,2.4,.59,2.13,1.2,4.24,1.84,6.37,.41,1.38,.84,2.76,1.29,4.13,.55,1.77,1.15,3.56,1.75,5.33,.77,2.22,1.56,4.44,2.38,6.66,.68,1.84,1.4,3.67,2.11,5.51,.05,.11,.09,.21,.12,.3,.64,1.61,1.29,3.2,1.97,4.8,.18,.47,.38,.93,.57,1.38,.64,1.56,1.32,3.08,2,4.62,.23,.52,.45,1.02,.68,1.52,.73,1.61,1.47,3.22,2.24,4.81,.68,1.43,1.38,2.88,2.09,4.31,1.29,2.63,2.63,5.24,4.03,7.84,.86,1.61,1.74,3.2,2.63,4.81,.98,1.77,2,3.54,3.02,5.32,.05,.09,.11,.18,.16,.27,1.09,1.86,2.18,3.7,3.33,5.55,.02,.04,.03,.05,.05,.09,.89,1.45,1.79,2.9,2.72,4.35,.39,.63,.81,1.25,1.22,1.88,.98,1.56,2.02,3.11,3.06,4.65,.16,.27,.36,.54,.54,.81,.88,1.29,1.75,2.58,2.65,3.85,1.16,1.68,2.34,3.36,3.58,5.03,.52,.73,1.06,1.47,1.59,2.2,1.11,1.5,2.24,3.01,3.38,4.49,1.02,1.34,2.06,2.68,3.11,4.03,.11,.14,.23,.29,.34,.43,.59,.75,1.18,1.5,1.79,2.25,1.43,1.79,2.88,3.56,4.35,5.33,2.58,3.08,5.23,6.14,7.93,9.18-3.94-15.44-5.91-28.62-5.91-39.46,0-20.1,7.87-30.16,23.6-30.16,6.55,0,14.42,1.61,23.62,4.8,112.8,41.64,238.73,81.62,377.81,120.05-.63,17.2-1.38,33.79-2.24,49.75-.3,5.82-.63,11.53-.98,17.18-.29,4.51-.55,8.97-.86,13.37-.18,2.97-.39,5.91-.61,8.82-.64,9.29-1.36,18.33-2.11,27.13-.39,4.62-.81,9.18-1.22,13.67-.63,6.75-1.29,13.35-1.97,19.79-.68,6.46-1.4,12.76-2.15,18.92-.25,2.04-.5,4.06-.75,6.07-1,8.05-2.06,15.82-3.17,23.34-.48,3.15-.95,6.26-1.43,9.32-.34,2.18-.7,4.33-1.06,6.48-.04,.25-.07,.52-.13,.79-.59,3.56-1.2,7.07-1.82,10.51-1.56,8.59-3.19,16.77-4.89,24.54-6.51,30.41-20.19,72.84-41,127.22-6.53,1.61-19.52,2.4-39.05,2.4-46.85,0-110.65-5.58-191.33-16.8-85.92-12.78-152.94-26.4-201.08-40.8,.39,.32,.77,.64,1.16,.97,68.76,57.2,151.01,106.5,246.81,147.88,87.19,38.41,171.12,64.82,251.84,79.23-5.26-19.22-7.87-36.02-7.87-50.43,0-46.39,26.22-73.59,78.71-81.61,71.51-3.17,143.03-6.34,214.56-9.52,.63-.04,1.27-.05,1.9-.09-.84-.23-1.68-.45-2.51-.7-.82-.23-1.65-.47-2.45-.72-.82-.25-1.63-.48-2.43-.75-2.79-.88-5.49-1.83-8.11-2.83-.97-.38-1.93-.75-2.9-1.15-.91-.38-1.81-.75-2.7-1.13-.11-.04-.2-.09-.29-.13-.88-.39-1.75-.79-2.61-1.18-37.8-17.48-56.68-49.04-56.68-94.65,0-9.61,.64-19.99,1.97-31.21,22.28-148.84,33.45-309.69,33.45-482.53,0-126.42-1.97-197.65-5.91-213.66-2.65-6.37-3.94-12.01-3.94-16.8,0-11.17,9.16-17.59,27.56-19.2h65.61c-43.76,66.09-65.63,134.42-65.63,204.96,0,49.48,11.95,95.71,35.88,138.66v-.05c2.63,4.71,5.39,9.38,8.29,14.01,.97,1.54,1.95,3.08,2.95,4.62,.68,1.06,1.38,2.11,2.09,3.17,.68,1.02,1.36,2.04,2.08,3.06,4.19,6.12,8.64,12.15,13.37,18.13,.77,1,1.58,1.99,2.38,2.99,1.23,1.54,2.49,3.06,3.74,4.58,2.58,3.08,5.23,6.14,7.93,9.18-3.94-15.44-5.91-28.62-5.91-39.46,0-20.1,7.87-30.16,23.6-30.16,6.55,0,14.42,1.61,23.62,4.8,112.8,41.64,238.73,81.62,377.81,120.05-.63,17.2-1.38,33.79-2.24,49.75-.3,5.82-.64,11.53-.98,17.18-.18,2.81-.34,5.58-.52,8.32-.02,.39-.05,.79-.07,1.18h55.76c20.54,0,37.33,5.55,49.93,16.52l38.06,33.18,10.58-49.7h82.47c.91-11.4,1.77-22.85,2.58-34.38,.02-.21,.04-.45,.05-.66,.38-5.53,.75-11.1,1.11-16.66,.38-5.78,.73-11.6,1.07-17.41,.34-5.82,.68-11.65,.98-17.5,.29-5.24,.55-10.49,.82-15.75,.05-1.2,.11-2.42,.16-3.62,.27-5.3,.5-10.61,.73-15.93,.27-5.92,.5-11.85,.73-17.79,.23-5.94,.45-11.9,.64-17.88,.09-2.34,.16-4.71,.23-7.05,.25-7.68,.46-15.39,.66-23.14,.02-.77,.04-1.54,.05-2.33,.12-5.01,.23-10.04,.34-15.07,.09-3.81,.16-7.64,.21-11.47,.09-4.46,.16-8.91,.21-13.37,.09-6.1,.16-12.22,.21-18.34,.05-4.15,.07-8.32,.09-12.49,.04-2.76,.05-5.53,.05-8.3,.02-5.37,.04-10.76,.04-16.16,0-126.42-1.97-197.65-5.91-213.66-2.65-6.37-3.94-12.01-3.94-16.8,0-11.17,9.16-17.59,27.54-19.2ZM505.71,416.52c-1.32,34.43-1.97,58.82-1.97,73.23-2.95-.88-5.87-1.75-8.75-2.6-12.69-3.79-24.89-7.43-36.56-10.92-2.56-.77-5.08-1.52-7.57-2.25-3.78-1.13-7.48-2.24-11.11-3.33-2.74-.82-5.44-1.63-8.11-2.42-7.73-2.31-15.21-4.55-22.44-6.71-3.72-1.13-7.37-2.22-10.97-3.29-.43-.13-.84-.25-1.27-.38-2.2-.68-4.38-1.32-6.53-1.97-.45-.13-.89-.25-1.34-.39-1.81-.54-3.6-1.07-5.35-1.61-3.97-1.2-7.87-2.36-11.65-3.51-1.27-.38-2.52-.75-3.76-1.13-3.08-.91-6.1-1.83-9.06-2.72-1.97-.59-3.9-1.18-5.82-1.75-.97-.29-1.91-.57-2.86-.86-1.88-.57-3.74-1.13-5.57-1.68-.57-.16-1.13-.32-1.66-.5-1.52-.47-3.02-.91-4.51-1.36-1.43-.43-2.83-.86-4.21-1.27-2.77-.84-5.46-1.66-8.09-2.45-1.31-.39-2.61-.79-3.88-1.18-.34-.09-.68-.2-1-.3-1.79-.55-3.56-1.09-5.3-1.61-.57-.16-1.16-.34-1.72-.52-1.99-.61-3.92-1.2-5.8-1.77-4.04-1.22-7.87-2.38-11.45-3.51-2.74-.84-5.37-1.65-7.84-2.4l-.32-.11c-1.22-.36-2.38-.72-3.51-1.07-.66-.2-1.31-.39-1.93-.61-.63-.2-1.25-.38-1.86-.57-.52-.16-1.04-.3-1.54-.47-36.1-11.19-54.12-41.61-54.12-91.23,0-33.61,7.87-66.39,23.62-98.43,15.73-31.98,32.12-48.8,49.2-50.41,52.45-7.98,80.68-11.99,84.61-11.99,20.96,0,46.89,3.6,77.72,10.79,18.56,4.35,31.55,25.11,38.91,62.26,.25,1.27,.5,2.56,.73,3.87,.36,1.84,.68,3.74,.98,5.66,.13,.82,.27,1.66,.39,2.49,.12,.84,.25,1.68,.38,2.54,.38,2.54,.72,5.15,1.06,7.84,.23,1.77,.45,3.58,.63,5.42,.3,2.76,.57,5.58,.84,8.46,.43,4.8,.8,9.79,1.11,14.94,.07,1.04,.13,2.08,.18,3.11,.13,2.09,.23,4.22,.32,6.37,.18,3.99,.32,8.07,.43,12.24,.03,1.23,.07,2.49,.09,3.74,.02,.34,.02,.7,.02,1.06,.04,1.27,.05,2.54,.07,3.83,.07,4.37,.11,8.84,.11,13.42,0,17.63-.68,43.61-1.97,78.01Zm759.51,0c-1.31,34.43-1.95,58.82-1.95,73.23-2.95-.88-5.87-1.75-8.75-2.6-10.97-3.27-21.56-6.44-31.77-9.48-4.6-1.36-9.11-2.72-13.55-4.04-.27-.07-.54-.16-.8-.23-2.95-.89-5.85-1.75-8.72-2.61-2.86-.86-5.69-1.72-8.5-2.54-3.29-.98-6.51-1.95-9.72-2.9-1.43-.43-2.86-.86-4.29-1.29-2.45-.75-4.89-1.47-7.28-2.18-.39-.11-.77-.21-1.16-.34-3.72-1.13-7.37-2.22-10.97-3.29-.43-.13-.84-.25-1.27-.38-2.2-.68-4.38-1.32-6.53-1.97-.45-.13-.89-.25-1.34-.39-1.81-.54-3.58-1.07-5.35-1.61-3.97-1.2-7.86-2.36-11.65-3.51-1.25-.38-2.51-.75-3.76-1.13-3.08-.91-6.1-1.83-9.06-2.72-1.97-.59-3.9-1.18-5.82-1.75-.97-.29-1.91-.57-2.86-.86-1.88-.57-3.74-1.13-5.57-1.68-.57-.16-1.13-.32-1.66-.5-1.52-.47-3.03-.91-4.51-1.36-1.41-.43-2.83-.86-4.2-1.27-2.77-.84-5.48-1.66-8.11-2.45-1.31-.39-2.59-.79-3.88-1.18-.32-.09-.66-.2-.98-.3-.75-.23-1.5-.45-2.26-.68-2.24-.68-4.4-1.34-6.53-1.99-2.11-.64-4.17-1.27-6.17-1.88-.66-.2-1.32-.41-1.99-.61-2.36-.72-4.63-1.41-6.84-2.09-.73-.21-1.45-.45-2.17-.66-.16-.04-.3-.09-.45-.14-1.99-.61-3.88-1.18-5.73-1.75-.11-.04-.21-.07-.32-.11-1.2-.36-2.36-.72-3.51-1.07-1.23-.38-2.43-.75-3.6-1.11-.07-.02-.12-.05-.2-.07-.52-.16-1.02-.3-1.52-.47-36.1-11.19-54.12-41.61-54.12-91.23,0-33.61,7.87-66.39,23.62-98.43,15.73-31.98,32.12-48.8,49.18-50.41,52.45-7.98,80.69-11.99,84.61-11.99,20.97,0,46.89,3.6,77.74,10.79,18.56,4.35,31.53,25.11,38.91,62.26,.66,3.33,1.29,6.76,1.84,10.34,.18,1.04,.34,2.09,.48,3.15,.05,.36,.11,.7,.16,1.06,.25,1.7,.5,3.42,.72,5.17,.02,.09,.02,.2,.04,.29,.14,1.11,.29,2.22,.41,3.35,.14,1.13,.29,2.27,.39,3.42,.25,2.17,.48,4.38,.7,6.64,0,.13,.02,.27,.04,.39,.11,1.2,.21,2.4,.32,3.62,.11,1.22,.21,2.45,.3,3.69,.09,1.13,.18,2.29,.27,3.44,.18,2.63,.36,5.3,.52,8,.07,1.31,.14,2.63,.21,3.95,.27,5.3,.48,10.79,.63,16.45,.04,1.23,.07,2.49,.09,3.74,.02,.34,.02,.7,.02,1.06,.03,1.27,.05,2.54,.07,3.83,.07,4.37,.11,8.84,.11,13.42,0,17.63-.66,43.61-1.97,78.01Z"/>
        <path d="M150.09,526.43c6.55,0,14.42,1.61,23.62,4.8,93.06,34.36,195.05,67.56,305.99,99.72,.57-10.74,1.07-21.76,1.54-33.05-134.27-37.4-257.58-76.74-366.64-116.99-9.23-3.19-15-3.87-18.2-3.87-3.95,0-4.76,1.02-5.01,1.36-.59,.75-2.49,3.85-2.49,12.69,0,9.47,1.83,21.4,5.4,35.49l8.68,34.11,.27,.32c.21,.27,.43,.54,.66,.81,.21,.27,.45,.54,.66,.81,.21,.27,.45,.54,.66,.81,.21,.27,.45,.54,.66,.81,.21,.27,.45,.54,.66,.81,.23,.29,.45,.55,.66,.82,.23,.27,.45,.54,.66,.81,.23,.27,.45,.54,.66,.81,.21,.27,.45,.54,.66,.81,.23,.27,.45,.54,.66,.81,.23,.27,.45,.54,.66,.82,.23,.27,.45,.54,.66,.81,.23,.27,.45,.54,.68,.81,.21,.27,.43,.54,.64,.81,.23,.27,.45,.54,.68,.81,.21,.27,.43,.54,.66,.81,.21,.29,.43,.55,.66,.82,.21,.27,.43,.54,.66,.81,.21,.27,.43,.54,.66,.81,.21,.27,.43,.54,.66,.81,.21,.27,.43,.54,.66,.81,.21,.27,.43,.54,.66,.82,.21,.27,.43,.54,.66,.81,.21,.27,.43,.54,.66,.81,.21,.27,.43,.54,.66,.81,.21,.27,.45,.54,.66,.82,.21,.27,.45,.54,.66,.81,.21,.27,.43,.54,.66,.81,.21,.27,.45,.54,.66,.81,3.2,3.9,6.5,7.77,9.91,11.6-3.94-15.44-5.91-28.62-5.91-39.46,0-20.1,7.87-30.16,23.6-30.16Z"/>
        <path d="M751.57,159.4c1.72,7,3.79,23.3,5.1,77.08,8.82-31.55,22.05-62.65,39.59-93.13h-35.97c-8.11,.79-11.28,2.51-12.19,3.11,0,1.56,.36,4.96,2.7,10.61l.48,1.15,.29,1.18Z"/>
        <path d="M749.2,919.82l-26.52-22.14c1.56,31.53,13.76,53.78,37.73,68.08-.2-3.13-.3-6.34-.3-9.61,0-8.18,.46-16.89,1.43-26.24-4.15-3.33-8.27-6.71-12.33-10.09Z"/>
      </g>
      <g>
        <polygon class="cls-1" points="1104.41 683.01 1096.52 720.07 1024.97 720.07 989.64 886.29 940.94 886.29 976.27 720.07 902 720.07 909.91 683.01 1104.41 683.01"/>
        <path class="cls-1" d="M1848.33,724.24c3.35-2.77,6.94-4.17,10.77-4.17h127.42l7.89-37.06h-156.14c-10.15,0-19.6,3.6-28.29,10.77-8.72,7.19-14.17,15.91-16.37,26.15l-35.34,166.36h192.92l7.62-35.63h-141.5l10.2-47.98h141.49l7.62-35.77h-141.5l6.91-32.61c.86-3.92,2.95-7.28,6.32-10.06Zm-423.6-41.23l-43.24,203.28h51.56l43.25-203.28h-51.58Z"/>
        <polygon class="cls-1" points="1104.41 683.01 1096.52 720.07 1024.97 720.07 989.64 886.29 940.94 886.29 976.27 720.07 902 720.07 909.91 683.01 1104.41 683.01"/>
        <path class="cls-1" d="M1848.33,724.24c3.35-2.77,6.94-4.17,10.77-4.17h127.42l7.89-37.06h-156.14c-10.15,0-19.6,3.6-28.29,10.77-8.72,7.19-14.17,15.91-16.37,26.15l-35.34,166.36h192.92l7.62-35.63h-141.5l10.2-47.98h141.49l7.62-35.77h-141.5l6.91-32.61c.86-3.92,2.95-7.28,6.32-10.06Zm-423.6-41.23l-43.24,203.28h51.56l43.25-203.28h-51.58Z"/>
        <path d="M909.91,683.01l-7.91,37.06h74.27l-35.33,166.22h48.7l35.33-166.22h71.55l7.89-37.06h-194.49Z"/>
        <path d="M1352.13,701.55c-9-12.35-23.26-18.54-42.81-18.54h-130.28c-10.17,0-19.65,3.6-28.45,10.77-8.72,7.19-14.07,15.43-16.09,24.71l-35.61,167.79h51.56l17.09-80.3h92.67c11.11,0,19.01,3.01,23.69,9.04,4.8,6.03,6,14.66,3.6,25.86l-9.63,45.4h51.58l10.63-49.72c4.6-21.64-.63-38.83-15.66-51.56,19.72-11.2,31.6-26.4,35.63-45.55,3.24-15.12,.61-27.77-7.91-37.92Zm-42.09,41.52c-2.68,10.24-7.23,17.09-13.64,20.54-6.14,3.54-15.57,5.32-28.31,5.32h-92.65l7.61-36.06c.68-2.97,2.63-5.85,5.89-8.63,3.37-2.77,7-4.17,10.93-4.17h78.56c12.94,0,21.8,1.45,26.58,4.31,4.8,3.36,6.46,9.57,5.03,18.68Z"/>
        <path d="M1424.73,683.01l-43.24,203.28h51.56l43.25-203.28h-51.58Z"/>
        <path d="M1736.95,737.89c3.06-14.75,.91-27.29-6.48-37.64-8.23-11.49-21.15-17.25-38.78-17.25h-126.42c-6.35,0-12.44,1.41-18.22,4.22-3.47,1.68-6.82,3.87-10.08,6.55-8.8,7.19-14.32,15.91-16.52,26.15l-35.34,166.36h163.34c15.89,0,30.69-5.6,44.38-16.82,13.71-11.29,22.23-24.89,25.57-40.79l.29-1.15c4.03-18.88-.23-34.09-12.78-45.69,16.66-10.54,27.01-25.18,31.03-43.95Zm-68.95,85.33l-.86,4.03c-1.16,5.74-5.65,11.06-13.51,15.95-7.75,4.01-16.43,6.03-26,6.03h-83.02l10.49-49.43h83.02c9.57,0,17.38,1.97,23.41,5.91,5.76,4.98,7.91,10.81,6.48,17.52Zm16.66-82.47c-1.63,7.77-5.6,13.65-11.92,17.68-7.19,4.69-16.29,7.03-27.29,7.03h-83.04l6.6-31.17c.86-3.92,2.97-7.28,6.32-10.06,3.36-2.77,6.94-4.17,10.77-4.17h68.95c11.02,0,19.2,1.97,24.57,5.91,4.6,3.92,6.26,8.86,5.03,14.78Z"/>
        <path d="M1848.33,724.24c3.35-2.77,6.94-4.17,10.77-4.17h127.42l7.89-37.06h-156.14c-10.15,0-19.6,3.6-28.29,10.77-8.72,7.19-14.17,15.91-16.37,26.15l-35.34,166.36h192.92l7.62-35.63h-141.5l10.2-47.98h141.49l7.62-35.77h-141.5l6.91-32.61c.86-3.92,2.95-7.28,6.32-10.06Z"/>
      </g>
    </g>
  </g>
</svg>